Coordinates
version=1
nRows=60
nColumns=12
inDegrees=yes

Units are S.I. units (second, meters, Newtons, ...)
Angles are in degrees

endheader
time	SC_y	SC_z	SC_x	AC_y	AC_z	AC_x	GH_y	GH_z	GH_yy	EL_x	PS_y
       0.0              -21.25          15.46           39.7          54.89         0.3671          19.67          -26.5          12.94         -16.66          112.2          146.8
   0.02413              -21.25          15.46           39.7          54.88         0.3652          19.67         -26.52          12.94         -16.64          112.2          146.7
   0.04825              -21.25          15.46          39.69          54.88         0.3631          19.67         -26.53          12.95         -16.62          112.2          146.7
   0.07238              -21.25          15.46          39.69          54.88         0.3609          19.66         -26.55          12.96          -16.6          112.2          146.7
    0.0965              -21.25          15.46          39.69          54.88         0.3585          19.66         -26.57          12.97         -16.58          112.2          146.7
    0.1206              -21.25          15.46          39.68          54.88          0.356          19.66          -26.6          12.98         -16.56          112.2          146.7
    0.1448              -21.25          15.47          39.68          54.88         0.3533          19.65         -26.62          12.99         -16.54          112.2          146.6
    0.1689              -21.25          15.47          39.67          54.87         0.3505          19.65         -26.65          13.01         -16.51          112.2          146.6
     0.193              -21.25          15.47          39.67          54.87         0.3474          19.64         -26.67          13.02         -16.48          112.2          146.6
    0.2171              -21.25          15.47          39.66          54.87         0.3441          19.64          -26.7          13.03         -16.45          112.2          146.5
    0.2413              -21.25          15.48          39.66          54.87         0.3406          19.64         -26.73          13.05         -16.42          112.2          146.5
    0.2654              -21.25          15.48          39.65          54.86         0.3368          19.63         -26.77          13.06         -16.39          112.2          146.5
    0.2895              -21.25          15.48          39.65          54.86         0.3327          19.63          -26.8          13.08         -16.35          112.2          146.4
    0.3136              -21.25          15.49          39.64          54.86         0.3283          19.62         -26.84           13.1         -16.31          112.2          146.4
    0.3378              -21.25          15.49          39.63          54.85         0.3235          19.61         -26.89          13.12         -16.27          112.2          146.3
    0.3619              -21.25           15.5          39.62          54.85         0.3183          19.61         -26.93          13.14         -16.22          112.2          146.3
     0.386              -21.25           15.5          39.62          54.84         0.3126           19.6         -26.98          13.17         -16.17          112.2          146.2
    0.4101              -21.25          15.51          39.61          54.84         0.3065          19.59         -27.04          13.19         -16.11          112.2          146.2
    0.4343              -21.25          15.51           39.6          54.83         0.2998          19.58          -27.1          13.22         -16.05          112.2          146.1
    0.4584              -21.25          15.52          39.58          54.83         0.2924          19.57         -27.16          13.25         -15.99          112.2          146.1
    0.4825              -21.25          15.53          39.57          54.82         0.2843          19.56         -27.24          13.29         -15.92          112.2          146.0
    0.5066              -21.25          15.53          39.56          54.81         0.2755          19.55         -27.31          13.32         -15.84          112.2          145.9
    0.5308              -21.25          15.54          39.54          54.81         0.2656          19.54          -27.4          13.36         -15.75          112.2          145.8
    0.5549              -21.25          15.55          39.53           54.8         0.2548          19.52          -27.5          13.41         -15.65          112.2          145.7
     0.579              -21.24          15.56          39.51          54.79         0.2427          19.51         -27.61          13.46         -15.54          112.2          145.6
    0.6032              -21.24          15.57          39.49          54.78         0.2292          19.49         -27.73          13.52         -15.42          112.2          145.5
    0.6273              -21.24          15.58          39.46          54.76         0.2141          19.47         -27.86          13.58         -15.28          112.2          145.3
    0.6514              -21.24           15.6          39.44          54.75         0.1971          19.45         -28.01          13.65         -15.13          112.2          145.2
    0.6755              -21.24          15.62          39.41          54.74         0.1779          19.42         -28.18          13.74         -14.96          112.2          145.0
    0.6997              -21.24          15.63          39.37          54.72          0.156          19.39         -28.38          13.83         -14.76          112.2          144.8
    0.7238              -21.24          15.65          39.34           54.7         0.1311          19.36          -28.6          13.93         -14.54          112.3          144.5
    0.7479              -21.24          15.68          39.29          54.68         0.1026          19.32         -28.85          14.05         -14.28          112.3          144.3
     0.772              -21.24          15.71          39.24          54.65        0.06959          19.28         -29.15          14.19         -13.99          112.3          144.0
    0.7962              -21.23          15.74          39.18          54.62        0.03126          19.23         -29.49          14.35         -13.64          112.3          143.6
    0.8203              -21.23          15.78          39.11          54.58       -0.01359          19.17         -29.89          14.54         -13.24          112.3          143.2
    0.8444              -21.23          15.82          39.03          54.54       -0.06646           19.1         -30.36          14.77         -12.77          112.3          142.7
    0.8685              -21.22          15.88          38.94          54.49        -0.1293          19.01         -30.92          15.03          -12.2          112.4          142.1
    0.8927              -21.22          15.94          38.82          54.43        -0.2046          18.91         -31.59          15.35         -11.53          112.4          141.4
    0.9168              -21.22          16.02          38.68          54.36        -0.2957          18.79          -32.4          15.73         -10.71          112.4          140.5
    0.9409              -21.21          16.11          38.51          54.27         -0.407          18.64         -33.39           16.2         -9.709          112.5          139.5
     0.965               -21.2          16.23           38.3          54.16        -0.5444          18.46         -34.61          16.78         -8.475          112.5          138.2
    0.9892              -21.19          16.37          38.04          54.02        -0.7157          18.24         -36.14          17.51         -6.937          112.6          136.6
     1.013              -21.18          16.56          37.71          53.85        -0.9315          17.95         -38.06          18.42           -5.0          112.7          134.6
     1.037              -21.17          16.79          37.28          53.63         -1.206          17.59          -40.5          19.57         -2.537          112.8          132.0
     1.062              -21.15          17.08          36.75          53.35         -1.557          17.12         -43.63          21.06         0.6155          113.0          128.7
     1.086              -21.12          17.47          36.05          52.99         -2.007          16.52         -47.64          22.96          4.661          113.2          124.5
      1.11              -21.09          17.95          35.17          52.53         -2.583          15.76         -52.76          25.39          9.828          113.4          119.1
     1.134              -21.06          18.57          34.06          51.95         -3.307           14.8         -59.21          28.44          16.33          113.7          112.3
     1.158              -21.01          19.31          32.71          51.25         -4.189          13.63         -67.06          32.16          24.24          114.1          104.0
     1.182              -20.95          20.18          31.14          50.43         -5.211          12.28         -76.16          36.48          33.42          114.5          94.44
     1.206               -20.9          21.12          29.44          49.55         -6.318          10.81         -86.01          41.15          43.36          115.0          84.06
      1.23              -20.84          22.05          27.74          48.66         -7.424          9.344         -95.87          45.82           53.3          115.5          73.68
     1.255              -20.78          22.92          26.17          47.85         -8.447          7.989         -105.0          50.13          62.48          115.9          64.09
     1.279              -20.74          23.67          24.82          47.14         -9.329          6.821         -112.8          53.85          70.39          116.3          55.82
     1.303               -20.7          24.28           23.7          46.56         -10.05          5.862         -119.3          56.91          76.89          116.6          49.03
     1.327              -20.67          24.77          22.82           46.1         -10.63          5.099         -124.4          59.34          82.06          116.8          43.64
     1.351              -20.64          25.15          22.13          45.74         -11.08          4.502         -128.4          61.24           86.1          117.0          39.41
     1.375              -20.62          25.45          21.59          45.46         -11.43          4.036         -131.5          62.72          89.26          117.2          36.12
     1.399              -20.61          25.68          21.17          45.24          -11.7          3.673         -134.0          63.88          91.72          117.3          33.54
     1.423               -20.6          25.86          20.84          45.07         -11.92          3.387         -135.9          64.79          93.66          117.4          31.52
